<svg xmlns="http://www.w3.org/2000/svg" viewBox="0 0 960 720" role="img" aria-labelledby="title"><title id="title">Privacy and responsible data</title><defs><linearGradient id="bg" x1="0" y1="0" x2="1" y2="1"><stop stop-color="#e6f3e9"/><stop offset="1" stop-color="#f7ebd4"/></linearGradient></defs><rect width="960" height="720" rx="36" fill="url(#bg)"/><circle cx="770" cy="160" r="112" fill="#fff" opacity=".48"/><path d="M480 125 L690 205 V350 Q680 500 480 595 Q280 500 270 350 V205Z" fill="#176b4d"/><path d="M480 165 L650 230 V350 Q640 465 480 540 Q320 465 310 350 V230Z" fill="#2d8b68"/><rect x="390" y="300" width="180" height="145" rx="22" fill="#fff"/><path d="M425 300 V265 Q425 220 480 220 Q535 220 535 265 V300" fill="none" stroke="#f2c66e" stroke-width="18" stroke-linecap="round"/><circle cx="480" cy="355" r="18" fill="#176b4d"/><path d="M480 373 V405" stroke="#176b4d" stroke-width="12" stroke-linecap="round"/><circle cx="190" cy="470" r="55" fill="#f2c66e"/><path d="M164 470 L182 489 L218 448" fill="none" stroke="#176b4d" stroke-width="10" stroke-linecap="round" stroke-linejoin="round"/><circle cx="770" cy="480" r="42" fill="#c6e2ce"/><path d="M750 480 L765 495 L791 464" fill="none" stroke="#176b4d" stroke-width="8" stroke-linecap="round" stroke-linejoin="round"/></svg>